#Comment line ignore any data following # character 
#Hierarchical Translation and Rotation (.htr) file 
[Header]	
#Header keywords are followed by a single value 
FileType HTR		#Single word string
DataType HTRS		#Translation followed by rotation and scale data
FileVersion 1		#integer
NumSegments 84		#integer
NumFrames 2		#integer
DataFrameRate 30		#integer, data frame rate in this file
EulerRotationOrder ZYX
CalibrationUnits mm
RotationUnits Degrees
GlobalAxisofGravity Y
BoneLengthAxis Y
ScaleFactor 1.00
[SegmentNames&Hierarchy]
#CHILD	PARENT
MASTER GLOBAL
root MASTER
chest root
L_mid_tent01 root
R_mid_tent01 root
spine01 root
Bip01_Neck chest
L_humerus chest
R_humerus chest
weapon_bone chest
Bip01_Head Bip01_Neck
eye_left_bone Bip01_Head
eye_right_bone Bip01_Head
L_forearm L_humerus
L_front_hand L_forearm
L_weapon_bone L_forearm
L_front_hand01_01 L_front_hand
L_front_hand02_01 L_front_hand
L_front_hand03_01 L_front_hand
L_front_hand01_02 L_front_hand01_01
L_front_hand02_02 L_front_hand02_01
L_front_hand03_02 L_front_hand03_01
R_forearm R_humerus
R_front_hand R_forearm
R_weapon_bone R_forearm
R_front_hand01_01 R_front_hand
R_front_hand02_01 R_front_hand
R_front_hand03_01 R_front_hand
R_front_hand01_02 R_front_hand01_01
R_front_hand02_02 R_front_hand02_01
R_front_hand03_02 R_front_hand03_01
null_rope01_connect L_mid_tent01
Rope1_Seg01 null_rope01_connect
Rope1_Seg02 Rope1_Seg01
Rope1_Seg03 Rope1_Seg02
Rope1_Seg04 Rope1_Seg03
Rope1_Seg05 Rope1_Seg04
Rope1_Seg06 Rope1_Seg05
Rope1_Seg07 Rope1_Seg06
Rope1_Seg09 Rope1_Seg07
L_mid_hand01 Rope1_Seg09
L_mid_hand02 Rope1_Seg09
L_mid_hand03 Rope1_Seg09
null_rope02_connect R_mid_tent01
Rope2_Seg01 null_rope02_connect
Rope2_Seg02 Rope2_Seg01
Rope2_Seg03 Rope2_Seg02
Rope2_Seg04 Rope2_Seg03
Rope2_Seg05 Rope2_Seg04
Rope2_Seg06 Rope2_Seg05
Rope2_Seg07 Rope2_Seg06
Rope2_Seg09 Rope2_Seg07
R_mid_hand01 Rope2_Seg09
R_mid_hand02 Rope2_Seg09
R_mid_hand03 Rope2_Seg09
spine02 spine01
spine03 spine02
pelvis spine03
null_rope03_connect pelvis
null_rope04_connect pelvis
Rope3_Seg01 null_rope03_connect
Rope3_Seg02 Rope3_Seg01
Rope3_Seg03 Rope3_Seg02
Rope3_Seg04 Rope3_Seg03
Rope3_Seg05 Rope3_Seg04
Rope3_Seg06 Rope3_Seg05
Rope3_Seg07 Rope3_Seg06
Rope3_Seg08 Rope3_Seg07
Rope3_Seg09 Rope3_Seg08
R_rear_hand01 Rope3_Seg09
R_rear_hand02 Rope3_Seg09
R_rear_hand03 Rope3_Seg09
Rope4_Seg01 null_rope04_connect
Rope4_Seg02 Rope4_Seg01
Rope4_Seg03 Rope4_Seg02
Rope4_Seg04 Rope4_Seg03
Rope4_Seg05 Rope4_Seg04
Rope4_Seg06 Rope4_Seg05
Rope4_Seg07 Rope4_Seg06
Rope4_Seg08 Rope4_Seg07
Rope4_Seg09 Rope4_Seg08
L_rear_hand01 Rope4_Seg09
L_rear_hand02 Rope4_Seg09
L_rear_hand03 Rope4_Seg09
[BasePosition]
#SegmentName Tx, Ty, Tz, Rx, Ry, Rz, BoneLength
MASTER 0.000000 0.000000 0.000000 -90.000000 0.000000 0.000000 10.000000 
root 0.000000 0.000000 0.000000 0.000000 0.000000 0.000000 10.000000 
chest 0.000000 0.000000 0.000000 0.000000 0.000000 0.000000 10.000000 
L_mid_tent01 0.000000 0.000000 0.000000 0.000000 0.000000 0.000000 10.000000 
R_mid_tent01 0.000000 0.000000 0.000000 0.000000 0.000000 0.000000 10.000000 
spine01 0.000000 0.000000 0.000000 0.000000 0.000000 0.000000 10.000000 
Bip01_Neck 0.000000 0.000000 0.000000 0.000000 0.000000 0.000000 10.000000 
L_humerus 0.000000 0.000000 0.000000 0.000000 0.000000 0.000000 10.000000 
R_humerus 0.000000 0.000000 0.000000 0.000000 0.000000 0.000000 10.000000 
weapon_bone 0.000000 0.000000 0.000000 0.000000 0.000000 0.000000 10.000000 
Bip01_Head 0.000000 0.000000 0.000000 0.000000 0.000000 0.000000 10.000000 
eye_left_bone 0.000000 0.000000 0.000000 0.000000 0.000000 0.000000 10.000000 
eye_right_bone 0.000000 0.000000 0.000000 0.000000 0.000000 0.000000 10.000000 
L_forearm 0.000000 0.000000 0.000000 0.000000 0.000000 0.000000 10.000000 
L_front_hand 0.000000 0.000000 0.000000 0.000000 0.000000 0.000000 10.000000 
L_weapon_bone 0.000000 0.000000 0.000000 0.000000 0.000000 0.000000 10.000000 
L_front_hand01_01 0.000000 0.000000 0.000000 0.000000 0.000000 0.000000 10.000000 
L_front_hand02_01 0.000000 0.000000 0.000000 0.000000 0.000000 0.000000 10.000000 
L_front_hand03_01 0.000000 0.000000 0.000000 0.000000 0.000000 0.000000 10.000000 
L_front_hand01_02 0.000000 0.000000 0.000000 0.000000 0.000000 0.000000 10.000000 
L_front_hand02_02 0.000000 0.000000 0.000000 0.000000 0.000000 0.000000 10.000000 
L_front_hand03_02 0.000000 0.000000 0.000000 0.000000 0.000000 0.000000 10.000000 
R_forearm 0.000000 0.000000 0.000000 0.000000 0.000000 0.000000 10.000000 
R_front_hand 0.000000 0.000000 0.000000 0.000000 0.000000 0.000000 10.000000 
R_weapon_bone 0.000000 0.000000 0.000000 0.000000 0.000000 0.000000 10.000000 
R_front_hand01_01 0.000000 0.000000 0.000000 0.000000 0.000000 0.000000 10.000000 
R_front_hand02_01 0.000000 0.000000 0.000000 0.000000 0.000000 0.000000 10.000000 
R_front_hand03_01 0.000000 0.000000 0.000000 0.000000 0.000000 0.000000 10.000000 
R_front_hand01_02 0.000000 0.000000 0.000000 0.000000 0.000000 0.000000 10.000000 
R_front_hand02_02 0.000000 0.000000 0.000000 0.000000 0.000000 0.000000 10.000000 
R_front_hand03_02 0.000000 0.000000 0.000000 0.000000 0.000000 0.000000 10.000000 
null_rope01_connect 0.000000 0.000000 0.000000 0.000000 0.000000 0.000000 10.000000 
Rope1_Seg01 0.000000 0.000000 0.000000 0.000000 0.000000 0.000000 10.000000 
Rope1_Seg02 0.000000 0.000000 0.000000 0.000000 0.000000 0.000000 10.000000 
Rope1_Seg03 0.000000 0.000000 0.000000 0.000000 0.000000 0.000000 10.000000 
Rope1_Seg04 0.000000 0.000000 0.000000 0.000000 0.000000 0.000000 10.000000 
Rope1_Seg05 0.000000 0.000000 0.000000 0.000000 0.000000 0.000000 10.000000 
Rope1_Seg06 0.000000 0.000000 0.000000 0.000000 0.000000 0.000000 10.000000 
Rope1_Seg07 0.000000 0.000000 0.000000 0.000000 0.000000 0.000000 10.000000 
Rope1_Seg09 0.000000 0.000000 0.000000 0.000000 0.000000 0.000000 10.000000 
L_mid_hand01 0.000000 0.000000 0.000000 0.000000 0.000000 0.000000 10.000000 
L_mid_hand02 0.000000 0.000000 0.000000 0.000000 0.000000 0.000000 10.000000 
L_mid_hand03 0.000000 0.000000 0.000000 0.000000 0.000000 0.000000 10.000000 
null_rope02_connect 0.000000 0.000000 0.000000 0.000000 0.000000 0.000000 10.000000 
Rope2_Seg01 0.000000 0.000000 0.000000 0.000000 0.000000 0.000000 10.000000 
Rope2_Seg02 0.000000 0.000000 0.000000 0.000000 0.000000 0.000000 10.000000 
Rope2_Seg03 0.000000 0.000000 0.000000 0.000000 0.000000 0.000000 10.000000 
Rope2_Seg04 0.000000 0.000000 0.000000 0.000000 0.000000 0.000000 10.000000 
Rope2_Seg05 0.000000 0.000000 0.000000 0.000000 0.000000 0.000000 10.000000 
Rope2_Seg06 0.000000 0.000000 0.000000 0.000000 0.000000 0.000000 10.000000 
Rope2_Seg07 0.000000 0.000000 0.000000 0.000000 0.000000 0.000000 10.000000 
Rope2_Seg09 0.000000 0.000000 0.000000 0.000000 0.000000 0.000000 10.000000 
R_mid_hand01 0.000000 0.000000 0.000000 0.000000 0.000000 0.000000 10.000000 
R_mid_hand02 0.000000 0.000000 0.000000 0.000000 0.000000 0.000000 10.000000 
R_mid_hand03 0.000000 0.000000 0.000000 0.000000 0.000000 0.000000 10.000000 
spine02 0.000000 0.000000 0.000000 0.000000 0.000000 0.000000 10.000000 
spine03 0.000000 0.000000 0.000000 0.000000 0.000000 0.000000 10.000000 
pelvis 0.000000 0.000000 0.000000 0.000000 0.000000 0.000000 10.000000 
null_rope03_connect 0.000000 0.000000 0.000000 0.000000 0.000000 0.000000 10.000000 
null_rope04_connect 0.000000 0.000000 0.000000 0.000000 0.000000 0.000000 10.000000 
Rope3_Seg01 0.000000 0.000000 0.000000 0.000000 0.000000 0.000000 10.000000 
Rope3_Seg02 0.000000 0.000000 0.000000 0.000000 0.000000 0.000000 10.000000 
Rope3_Seg03 0.000000 0.000000 0.000000 0.000000 0.000000 0.000000 10.000000 
Rope3_Seg04 0.000000 0.000000 0.000000 0.000000 0.000000 0.000000 10.000000 
Rope3_Seg05 0.000000 0.000000 0.000000 0.000000 0.000000 0.000000 10.000000 
Rope3_Seg06 0.000000 0.000000 0.000000 0.000000 0.000000 0.000000 10.000000 
Rope3_Seg07 0.000000 0.000000 0.000000 0.000000 0.000000 0.000000 10.000000 
Rope3_Seg08 0.000000 0.000000 0.000000 0.000000 0.000000 0.000000 10.000000 
Rope3_Seg09 0.000000 0.000000 0.000000 0.000000 0.000000 0.000000 10.000000 
R_rear_hand01 0.000000 0.000000 0.000000 0.000000 0.000000 0.000000 10.000000 
R_rear_hand02 0.000000 0.000000 0.000000 0.000000 0.000000 0.000000 10.000000 
R_rear_hand03 0.000000 0.000000 0.000000 0.000000 0.000000 0.000000 10.000000 
Rope4_Seg01 0.000000 0.000000 0.000000 0.000000 0.000000 0.000000 10.000000 
Rope4_Seg02 0.000000 0.000000 0.000000 0.000000 0.000000 0.000000 10.000000 
Rope4_Seg03 0.000000 0.000000 0.000000 0.000000 0.000000 0.000000 10.000000 
Rope4_Seg04 0.000000 0.000000 0.000000 0.000000 0.000000 0.000000 10.000000 
Rope4_Seg05 0.000000 0.000000 0.000000 0.000000 0.000000 0.000000 10.000000 
Rope4_Seg06 0.000000 0.000000 0.000000 0.000000 0.000000 0.000000 10.000000 
Rope4_Seg07 0.000000 0.000000 0.000000 0.000000 0.000000 0.000000 10.000000 
Rope4_Seg08 0.000000 0.000000 0.000000 0.000000 0.000000 0.000000 10.000000 
Rope4_Seg09 0.000000 0.000000 0.000000 0.000000 0.000000 0.000000 10.000000 
L_rear_hand01 0.000000 0.000000 0.000000 0.000000 0.000000 0.000000 10.000000 
L_rear_hand02 0.000000 0.000000 0.000000 0.000000 0.000000 0.000000 10.000000 
L_rear_hand03 0.000000 0.000000 0.000000 0.000000 0.000000 0.000000 10.000000 
#Beginning of Data. Separated by tabs
#Fr	Tx	Ty	Tz	Rx	Ry	Rz	SF
[MASTER]
2 0.000000 0.000000 0.000000 0.001660 0.001660 0.001660 0.000000
3 0.000000 0.000000 0.000000 0.001660 0.001660 0.001660 0.000000
[root]
2 -9.788475 -5.354685 1482.582520 -86.996498 -11.640829 -89.646477 1482.624512
3 -0.935856 -37.333916 1557.959473 -76.595848 -11.838068 -90.029579 1558.406982
[chest]
2 -84.512650 -34.090519 0.000000 -0.771558 -0.466641 169.958481 91.129311
3 -84.512650 -34.090519 0.000000 1.522663 -1.312633 173.918686 91.129311
[L_mid_tent01]
2 27.299099 22.179253 -249.918747 -21.263254 14.729967 15.910354 252.381729
3 27.299099 22.179249 -249.918747 -21.315903 21.593580 24.680058 252.381729
[R_mid_tent01]
2 23.228794 24.509907 226.238495 -153.838333 -18.886822 16.459591 228.744751
3 23.228794 24.509907 226.238495 -136.138000 -20.945896 7.049038 228.744751
[spine01]
2 -0.361383 -0.195265 0.000000 -0.017418 -0.007492 22.185408 0.410763
3 -0.361383 -0.195265 0.000000 -0.036803 -0.016250 22.318966 0.410763
[Bip01_Neck]
2 165.484543 71.581718 0.000119 175.896118 1.177290 24.871183 180.302734
3 165.484543 71.581718 0.000119 175.896118 1.177290 24.871180 180.302734
[L_humerus]
2 -13.983130 -135.272980 -120.471481 -5.313130 67.944641 84.736397 181.680161
3 -13.983130 -135.272980 -120.471481 -5.176356 67.146698 84.875351 181.680161
[R_humerus]
2 -13.983309 -135.273102 125.287651 -0.437030 -71.603416 99.082634 184.909012
3 -13.983309 -135.273102 125.287651 -47.245903 -65.837845 149.326157 184.909012
[weapon_bone]
2 235.964890 -300.705902 0.000000 0.000000 -89.951546 -128.212341 382.234833
3 235.964890 -300.705902 0.000000 0.000000 -89.951546 -128.212341 382.234833
[Bip01_Head]
2 253.977264 135.613724 -7.057611 3.221653 5.843957 -62.457520 288.002319
3 253.067230 138.901077 -7.285615 5.361064 5.844413 -62.455421 288.772583
[eye_left_bone]
2 -0.641274 120.467705 -58.045933 0.000000 -90.000000 -99.840431 133.724380
3 -0.173694 120.370529 -57.914814 0.000000 -90.000000 -99.840431 133.578522
[eye_right_bone]
2 -0.636697 120.466141 71.054237 0.000000 -89.980217 80.156387 139.861359
3 -0.168964 120.368927 71.185364 0.000000 -89.972023 80.156387 139.843002
[L_forearm]
2 322.776093 0.000000 -0.000119 0.000404 -0.002312 -109.801247 322.776093
3 322.776093 0.000000 -0.000119 0.000410 -0.002311 -110.133385 322.776093
[L_front_hand]
2 241.149185 -0.042021 -3.300071 -178.667953 -1.835447 -27.422346 241.171753
3 241.149185 -0.042021 -3.300071 -178.667953 -1.835447 -27.422350 241.171753
[L_weapon_bone]
2 156.183838 0.000000 0.000000 0.000014 0.000007 0.000001 156.183838
3 156.183838 0.000000 0.000000 0.000014 0.000007 0.000001 156.183838
[L_front_hand01_01]
2 86.095154 20.947098 -0.655860 -0.366594 -0.477154 75.385582 88.609184
3 86.095154 20.947098 -0.655860 -0.366594 -0.477154 75.385574 88.609184
[L_front_hand02_01]
2 86.935165 -11.437475 24.513514 154.403519 -59.888943 -61.371990 91.046425
3 86.935165 -11.437475 24.513514 154.403519 -59.888931 -61.371990 91.046425
[L_front_hand03_01]
2 86.637497 -14.123976 -20.424902 -153.913864 58.118134 -62.702885 90.126129
3 86.637497 -14.123976 -20.424902 -153.913849 58.118122 -62.702866 90.126129
[L_front_hand01_02]
2 71.020905 -0.000179 0.000030 0.000334 -0.002323 -106.379684 71.020905
3 71.020905 -0.000179 0.000030 0.000334 -0.002323 -106.379684 71.020905
[L_front_hand02_02]
2 71.020927 -0.000119 0.000060 0.000334 -0.002323 -106.379684 71.020927
3 71.020927 -0.000119 0.000060 0.000334 -0.002323 -106.379684 71.020927
[L_front_hand03_02]
2 71.020905 -0.000060 0.000060 0.000334 -0.002323 -106.379684 71.020905
3 71.020905 -0.000060 0.000060 0.000334 -0.002323 -106.379684 71.020905
[R_forearm]
2 322.776428 -0.000060 0.000030 0.201167 0.067993 -109.674004 322.776428
3 322.776428 -0.000060 0.000030 0.200319 0.070451 -111.077545 322.776428
[R_front_hand]
2 238.847015 -0.006795 2.210259 -2.767154 0.412138 -47.444019 238.857239
3 238.847015 -0.006795 2.210259 -5.881644 -0.418183 -42.117859 238.857239
[R_weapon_bone]
2 155.664093 0.002503 -0.000030 0.003487 0.001180 -90.988930 155.664078
3 155.664093 0.002503 -0.000030 0.003487 0.001180 -90.988930 155.664078
[R_front_hand01_01]
2 87.624611 14.231146 22.918642 -122.121323 -31.679863 18.702246 91.683487
3 87.624611 14.231146 22.918642 -116.960213 3.496675 -1.324139 91.683487
[R_front_hand02_01]
2 89.356956 14.367283 -19.491137 123.409882 30.457808 21.397026 92.579636
3 89.356956 14.367283 -19.491137 118.419647 -4.257089 0.609827 92.579636
[R_front_hand03_01]
2 87.286232 -22.307278 -0.143439 -0.147798 -0.427427 -35.767342 90.091743
3 87.286232 -22.307278 -0.143439 -0.387970 -0.231462 4.232001 90.091743
[R_front_hand01_02]
2 71.020905 0.000060 0.000119 0.001777 0.001534 8.377220 71.020905
3 71.020905 0.000060 0.000119 0.001777 0.001534 8.377220 71.020905
[R_front_hand02_02]
2 71.020844 -0.000030 -0.000119 0.001777 0.001534 8.377220 71.020836
3 71.020844 -0.000030 -0.000119 0.001777 0.001534 8.377220 71.020836
[R_front_hand03_02]
2 71.020905 0.000000 0.000030 0.001777 0.001534 8.377220 71.020905
3 71.020905 0.000000 0.000030 0.001777 0.001534 8.377220 71.020905
[null_rope01_connect]
2 328.732483 0.000000 -0.000238 -149.738846 -67.363106 -127.450050 328.732483
3 328.732483 0.000000 -0.000238 -136.515625 -72.223740 -151.565552 328.732483
[Rope1_Seg01]
2 -0.000034 -0.000066 0.000005 44.492592 14.719272 -119.368790 0.000074
3 -0.000031 -0.000065 0.000010 -148.163681 35.546391 -123.620125 0.000072
[Rope1_Seg02]
2 139.999863 -0.000179 0.000000 -6.437517 1.065098 0.412388 139.999863
3 139.999863 -0.000179 0.000000 -10.572253 -0.928771 5.687672 139.999863
[Rope1_Seg03]
2 139.999924 0.000060 -0.000060 -9.749464 1.417851 0.774311 139.999924
3 139.999924 0.000060 -0.000060 -9.103378 -4.327664 11.624919 139.999924
[Rope1_Seg04]
2 139.999924 -0.000060 -0.000119 -14.114267 1.792757 1.464476 139.999924
3 139.999924 -0.000060 -0.000119 -10.655435 -11.563437 27.460793 139.999924
[Rope1_Seg05]
2 139.999832 0.000119 -0.000060 13.436106 -1.103677 -1.906195 139.999832
3 139.999832 0.000119 -0.000060 -5.977186 -16.574898 29.149561 139.999832
[Rope1_Seg06]
2 139.999954 0.000119 -0.000060 21.768446 -2.475870 -2.494545 139.999954
3 139.999954 0.000119 -0.000060 -0.013393 -1.224851 1.871486 139.999954
[Rope1_Seg07]
2 139.999985 0.000060 0.000000 12.650410 -2.188009 -0.987426 139.999985
3 139.999985 0.000060 0.000000 0.006609 0.001653 0.001672 139.999985
[Rope1_Seg09]
2 121.602913 0.000119 -0.000089 -89.793175 -1.359789 0.847147 121.602913
3 121.602913 0.000119 -0.000089 -89.793175 -1.359789 0.847147 121.602913
[L_mid_hand01]
2 103.859421 1.038730 8.195221 114.520287 -53.310497 -20.623238 104.187431
3 103.859421 1.038730 8.195221 114.520287 -53.310486 -20.623234 104.187431
[L_mid_hand02]
2 105.572853 -4.139662 -10.864139 -155.067673 38.166634 -52.448826 106.211075
3 105.572853 -4.139662 -10.864139 -155.067673 38.166626 -52.448818 106.211075
[L_mid_hand03]
2 104.641464 17.579376 -3.913581 -10.970132 15.317463 57.626949 106.179977
3 104.641464 17.579376 -3.913581 -10.970130 15.317461 57.626949 106.179977
[null_rope02_connect]
2 328.732849 0.000179 -0.000119 -152.262344 55.082748 -53.170612 328.732849
3 328.732849 0.000179 -0.000119 -156.898743 29.235943 -64.634666 328.732849
[Rope2_Seg01]
2 0.000095 0.000153 0.000003 -14.121378 -18.854166 -13.898941 0.000180
3 0.000095 0.000153 0.000005 -14.056052 -29.626219 -8.656986 0.000180
[Rope2_Seg02]
2 139.999741 -0.000060 -0.000119 2.749817 0.917160 -3.499311 139.999756
3 139.999741 -0.000060 -0.000119 -0.960004 -4.684008 3.773882 139.999756
[Rope2_Seg03]
2 140.000107 0.000030 0.000000 25.698990 4.565180 -23.303379 140.000107
3 140.000107 0.000030 0.000000 -1.525944 -9.026474 7.127180 140.000107
[Rope2_Seg04]
2 139.999802 0.000000 -0.000060 -29.599524 17.955418 92.448120 139.999802
3 139.999802 0.000000 -0.000060 -3.940909 -25.651091 17.414871 139.999802
[Rope2_Seg05]
2 139.999985 -0.000060 0.000119 0.826704 -8.813769 13.406944 139.999985
3 139.999985 -0.000060 0.000119 -1.746749 -35.563698 27.044207 139.999985
[Rope2_Seg06]
2 139.999893 -0.000030 -0.000119 0.059977 -0.275521 0.471416 139.999893
3 139.999893 -0.000030 -0.000119 27.946953 2.641306 16.224539 139.999893
[Rope2_Seg07]
2 139.999893 0.000060 -0.000060 -0.052693 0.001703 0.001678 139.999893
3 139.999893 0.000060 -0.000060 13.601626 10.575667 6.304793 139.999893
[Rope2_Seg09]
2 121.338966 0.000089 -0.000060 63.689877 -0.708079 -1.415966 121.338966
3 121.338966 0.000089 -0.000060 70.548714 -0.430251 -1.495754 121.338966
[R_mid_hand01]
2 104.680779 11.144459 -10.335981 -47.384251 2.963615 5.452690 105.778534
3 104.680779 11.144459 -10.335981 -40.147198 27.799562 31.669579 105.778534
[R_mid_hand02]
2 104.070427 2.443552 8.231699 75.626297 -2.250124 1.111124 104.424065
3 104.070427 2.443552 8.231699 72.094734 -36.208256 11.340107 104.424065
[R_mid_hand03]
2 106.028137 -11.221827 -5.996406 -164.381927 2.496018 -6.140643 106.788818
3 106.028137 -11.221827 -5.996406 -168.570969 10.999981 -40.628181 106.788818
[spine02]
2 129.756927 0.001550 0.000119 0.390723 -4.783116 -12.603115 129.756927
3 129.756927 0.001550 0.000119 0.401110 -5.950870 -11.762028 129.756927
[spine03]
2 78.614044 0.081629 -4.899020 1.926009 3.816480 16.938950 78.766579
3 78.614044 0.081624 -4.899019 1.953279 3.802593 17.339983 78.766579
[pelvis]
2 169.435242 0.051022 0.000000 -0.061014 -0.180040 14.436826 169.435257
3 169.435242 0.051022 0.000000 -0.061483 -0.179880 14.735990 169.435257
[null_rope03_connect]
2 -1.257226 -2.466202 137.391083 23.490538 -85.571190 37.190346 137.418976
3 -1.257226 -2.466202 137.391083 18.350399 -75.030640 41.050144 137.418976
[null_rope04_connect]
2 -1.259640 -2.480268 -137.844437 23.490538 -85.571190 37.190346 137.872513
3 -1.259640 -2.480268 -137.844437 18.350399 -75.030640 41.050144 137.872513
[Rope3_Seg01]
2 0.000000 0.000000 0.000000 -125.841019 22.782352 -62.423763 0.000000
3 0.000000 0.000000 0.000000 -129.513367 1.066553 -59.562332 0.000000
[Rope3_Seg02]
2 139.999924 -0.000119 0.000060 -0.459191 5.382502 -0.534862 139.999924
3 139.999924 -0.000119 0.000060 -1.815649 4.531623 -3.377370 139.999924
[Rope3_Seg03]
2 139.999924 -0.000119 0.000119 -0.789089 11.329126 -3.059035 139.999924
3 139.999924 -0.000119 0.000119 -14.804194 24.518623 -21.093735 139.999924
[Rope3_Seg04]
2 139.999924 0.000119 0.000000 0.099396 20.846317 -4.828873 139.999924
3 139.999924 0.000119 0.000000 -38.198776 -47.288448 88.826874 139.999924
[Rope3_Seg05]
2 139.999924 -0.000238 0.000060 -13.738339 -25.742794 29.970730 139.999924
3 139.999924 -0.000238 0.000060 -7.430315 -19.380264 17.499758 139.999924
[Rope3_Seg06]
2 139.999893 -0.000119 -0.000060 -2.725361 -8.459386 6.968456 139.999893
3 139.999893 -0.000119 -0.000060 0.073270 -1.289909 1.108735 139.999893
[Rope3_Seg07]
2 139.999771 0.000060 -0.000119 -0.726434 -3.497887 2.933620 139.999771
3 139.999771 0.000060 -0.000119 0.466388 -0.152172 0.129620 139.999771
[Rope3_Seg08]
2 139.999985 -0.000060 0.000000 -0.118011 -1.896137 1.551868 139.999985
3 139.999985 -0.000060 0.000000 0.535796 0.001656 0.001666 139.999985
[Rope3_Seg09]
2 90.185997 -0.000179 -0.000060 89.286713 -1.358751 -0.846073 90.185997
3 90.185997 -0.000179 -0.000060 87.904694 -1.358682 -0.847303 90.185997
[R_rear_hand01]
2 103.366196 -6.073594 -10.757982 -161.952179 17.100084 -31.467245 104.101845
3 103.366196 -6.073594 -10.757982 -156.049316 6.070421 -2.795877 104.101845
[R_rear_hand02]
2 100.509819 12.039542 -7.992327 -33.868809 20.068441 30.096478 101.543350
3 100.509819 12.039542 -7.992327 -38.708427 1.958057 5.461192 101.543350
[R_rear_hand03]
2 101.539970 5.215704 5.435467 83.265404 -32.311989 7.474987 101.819031
3 101.539970 5.215704 5.435467 84.307625 -2.361042 4.099039 101.819031
[Rope4_Seg01]
2 -0.000019 -0.000074 -0.000153 43.739090 23.746368 -112.905533 0.000171
3 -0.000018 -0.000071 -0.000153 41.128788 2.661905 -139.227463 0.000169
[Rope4_Seg02]
2 139.999985 0.000060 0.000119 -0.227698 -4.761139 -8.198027 139.999985
3 139.999985 0.000060 0.000119 -14.662837 2.672327 -19.363026 139.999985
[Rope4_Seg03]
2 139.999924 0.000000 -0.000238 -0.569230 -9.653557 -10.208364 139.999924
3 139.999924 0.000000 -0.000238 -24.819092 5.889246 -27.456806 139.999924
[Rope4_Seg04]
2 139.999985 0.000000 0.000119 -2.696535 -1.906443 -7.345562 139.999985
3 139.999985 0.000000 0.000119 -12.323639 26.901039 -9.274209 139.999985
[Rope4_Seg05]
2 139.999802 -0.000060 -0.000119 -2.016648 21.773106 2.313927 139.999802
3 139.999802 -0.000060 -0.000119 2.173979 37.873646 5.869063 139.999802
[Rope4_Seg06]
2 139.999924 0.000000 0.000060 0.145563 14.441021 1.411023 139.999924
3 139.999924 0.000000 0.000060 4.128049 17.561728 0.789797 139.999924
[Rope4_Seg07]
2 139.999802 0.000000 0.000000 0.786297 9.058494 0.510466 139.999802
3 139.999802 0.000000 0.000000 1.783561 4.614814 -0.124492 139.999802
[Rope4_Seg08]
2 139.999924 0.000000 0.000119 -0.992087 3.970505 0.170174 139.999924
3 139.999924 0.000000 0.000119 -1.447457 0.001704 0.001632 139.999924
[Rope4_Seg09]
2 90.185791 0.000060 0.000060 -135.617828 2.228885 0.850567 90.185791
3 90.185791 0.000060 0.000060 -135.617828 2.228885 0.850567 90.185791
[L_rear_hand01]
2 101.696655 -8.392275 -7.654577 -19.915020 -33.950905 119.950104 102.329041
3 101.696655 -8.392275 -7.654577 -19.915018 -33.950897 119.950104 102.329041
[L_rear_hand02]
2 102.726799 -1.568258 5.773216 77.862274 61.878536 165.399200 102.900848
3 102.726799 -1.568258 5.773216 77.862221 61.878510 165.399200 102.900848
[L_rear_hand03]
2 104.552910 9.721220 -10.420293 -173.099182 -23.740307 -117.327896 105.519653
3 104.552910 9.721220 -10.420293 -173.099182 -23.740309 -117.327896 105.519653
